HIERARCHY
ROOT Hips
{
	OFFSET	0.00	0.00	0.00
	CHANNELS 6 Xposition Yposition Zposition Zrotation Xrotation Yrotation
	JOINT LeftUpLeg
	{
		OFFSET	 0.126116	-0.014019	-0.065224
		CHANNELS 3 Zrotation Xrotation Yrotation
		JOINT LeftLeg
		{
			OFFSET	 0.000000	 0.000000	 0.569914
			CHANNELS 3 Zrotation Xrotation Yrotation
			JOINT LeftFoot
			{
				OFFSET	 0.000000	 0.000000	 0.544423
				CHANNELS 3 Zrotation Xrotation Yrotation
				JOINT LeftToeBase
				{
					OFFSET	 0.000000	 0.000000	 0.207117
					CHANNELS 3 Zrotation Xrotation Yrotation
					End Site
					{
						OFFSET	 0.000000	 0.000000	 0.207117
					}
				}
			}
		}
	}
	JOINT RightUpLeg
	{
		OFFSET	-0.124023	-0.008373	-0.065224
		CHANNELS 3 Zrotation Xrotation Yrotation
		JOINT RightLeg
		{
			OFFSET	 0.000000	 0.000000	 0.570047
			CHANNELS 3 Zrotation Xrotation Yrotation
			JOINT RightFoot
			{
				OFFSET	 0.000000	 0.000000	 0.544354
				CHANNELS 3 Zrotation Xrotation Yrotation
				JOINT RightToeBase
				{
					OFFSET	 0.000000	 0.000000	 0.207540
					CHANNELS 3 Zrotation Xrotation Yrotation
					End Site
					{
						OFFSET	 0.000000	 0.000000	 0.207540
					}
				}
			}
		}
	}
	JOINT Spine
	{
		OFFSET	 0.000184	-0.007763	 0.117403
		CHANNELS 3 Zrotation Xrotation Yrotation
		JOINT Spine1
		{
			OFFSET	 0.000000	 0.000000	 0.137269
			CHANNELS 3 Zrotation Xrotation Yrotation
			JOINT Spine2
			{
				OFFSET	 0.000000	 0.000000	 0.156879
				CHANNELS 3 Zrotation Xrotation Yrotation
				JOINT LeftShoulder
				{
					OFFSET	 0.080501	-0.002496	 0.160144
					CHANNELS 3 Zrotation Xrotation Yrotation
					JOINT LeftArm
					{
						OFFSET	 0.000000	 0.000000	 0.164363
						CHANNELS 3 Zrotation Xrotation Yrotation
						JOINT LeftForeArm
						{
							OFFSET	 0.000000	 0.000000	 0.364576
							CHANNELS 3 Zrotation Xrotation Yrotation
							JOINT LeftHand
							{
								OFFSET	 0.000000	 0.000000	 0.360812
								CHANNELS 3 Zrotation Xrotation Yrotation
								JOINT LeftHandIndex1
								{
									OFFSET	 0.000000	 0.000000	 0.086006
									CHANNELS 3 Zrotation Xrotation Yrotation
									JOINT LeftHandIndex2
									{
										OFFSET	 0.000000	 0.000000	 0.047237
										CHANNELS 3 Zrotation Xrotation Yrotation
										JOINT LeftHandIndex3
										{
											OFFSET	-0.004284	-0.000551	 0.038165
											CHANNELS 3 Zrotation Xrotation Yrotation
											End Site
											{
												OFFSET	-0.004284	-0.000551	 0.038165
											}
										}
									}
								}
							}
						}
					}
				}
				JOINT Neck
				{
					OFFSET	 0.000000	 0.000000	 0.176489
					CHANNELS 3 Zrotation Xrotation Yrotation
					JOINT Head
					{
						OFFSET	 0.000000	-0.001747	 0.077940
						CHANNELS 3 Zrotation Xrotation Yrotation
						End Site
						{
							OFFSET	 0.000000	-0.001747	 0.077940
						}
					}
				}
				JOINT RightShoulder
				{
					OFFSET	-0.080363	 0.000306	 0.159706
					CHANNELS 3 Zrotation Xrotation Yrotation
					JOINT RightArm
					{
						OFFSET	 0.000000	 0.000000	 0.164196
						CHANNELS 3 Zrotation Xrotation Yrotation
						JOINT RightForeArm
						{
							OFFSET	 0.000000	 0.000000	 0.365611
							CHANNELS 3 Zrotation Xrotation Yrotation
							JOINT RightHand
							{
								OFFSET	 0.000000	 0.000000	 0.360648
								CHANNELS 3 Zrotation Xrotation Yrotation
								JOINT RightHandIndex1
								{
									OFFSET	 0.000000	 0.000000	 0.069977
									CHANNELS 3 Zrotation Xrotation Yrotation
									JOINT RightHandIndex2
									{
										OFFSET	 0.000000	 0.000000	 0.052305
										CHANNELS 3 Zrotation Xrotation Yrotation
										JOINT RightHandIndex3
										{
											OFFSET	 0.009002	-0.000782	 0.042196
											CHANNELS 3 Zrotation Xrotation Yrotation
											End Site
											{
												OFFSET	 0.009002	-0.000782	 0.042196
											}
										}
									}
								}
							}
						}
					}
				}
			}
		}
	}
}
MOTION
Frames:    7
Frame Time: 0.03333334
-0.714366	-0.027771	 1.257632	 170.138100	-8.633170	-1.258914	 11.218740	 2.132392	 177.302700	-2.121513	-29.855320	-1.786468	-54.458410	 76.401940	 45.998190	-2.385833	 28.452760	 0.000004	-34.984410	-6.146089	-164.861600	 9.924935	-31.406710	 5.327396	 22.283670	 77.672320	-24.188830	 2.384659	 28.388700	-0.000001	 55.520440	 4.439582	-13.018480	 6.832462	 4.645090	 2.148782	-1.263478	 7.155420	-2.015144	-91.776220	 78.527350	-180.000000	-15.961810	 48.284090	-47.425860	-73.402290	 15.603470	-16.062310	-28.653390	-50.756680	-14.321740	-4.130354	 21.526190	 0.991307	-5.167926	 0.731697	 3.519349	-1.378229	 35.397820	-2.634230	 14.481600	 6.103464	-2.344490	 5.666779	-13.337350	-2.089133	 89.782100	 78.203900	 180.000000	-44.627170	 17.487640	 81.269280	-24.829490	 10.055510	 167.585800	-7.654222	-13.886040	-15.421050	 5.716295	 19.173350	-3.684826	 5.027458	 0.246833	-9.377971	-2.350882	 35.473990	 5.254307
-0.714458	-0.027798	 1.256912	 169.803000	-8.720633	-1.132942	 10.838070	 2.311258	 177.200600	-1.962866	-29.950450	-1.712207	-55.293710	 76.297130	 46.727660	-2.385833	 28.452760	 0.000004	-35.395130	-6.068911	-164.898000	 10.089560	-31.378760	 5.410898	 21.563680	 77.817650	-23.575820	 2.384659	 28.388700	-0.000001	 56.316470	 4.288148	-13.414670	 7.327574	 4.535812	 0.917011	-1.417713	 6.872925	-0.674418	-91.776220	 78.527380	-180.000000	-15.853210	 49.517980	-35.566280	-67.260630	 33.650220	-31.295190	-29.350710	-51.084400	-14.762290	-4.130354	 21.526190	 0.991307	-5.167926	 0.731697	 3.519349	-1.378229	 35.397820	-2.634230	 14.628780	 5.729065	-2.861816	 5.566544	-13.810110	-3.374187	 89.781990	 78.203870	-179.999900	-45.486320	 15.830710	 83.261840	-23.977220	 10.294400	 166.654900	-10.967780	-12.704820	-16.329350	 5.716295	 19.173350	-3.684826	 5.027458	 0.246833	-9.377971	-2.350882	 35.473990	 5.254307
-0.714762	-0.027934	 1.256431	 169.457600	-8.818566	-0.915994	 10.587020	 2.453229	 176.993300	-1.827005	-30.070030	-1.650158	-55.904240	 76.157260	 47.257600	-2.385833	 28.452760	 0.000004	-35.754510	-5.952130	-164.990300	 10.239930	-31.368910	 5.489566	 20.856620	 77.917400	-22.979050	 2.384659	 28.388700	-0.000001	 57.080230	 4.173746	-13.986110	 7.796528	 4.365942	-0.220149	-1.578676	 6.693418	 0.773593	-91.776220	 78.527380	-180.000000	-18.058960	 49.469050	-28.179570	-61.926340	 41.336690	-40.328140	-29.706590	-51.290480	-14.907420	-4.130354	 21.526190	 0.991307	-5.167926	 0.731697	 3.519349	-1.378229	 35.397820	-2.634230	 14.808860	 5.247559	-3.566763	 5.430830	-14.071140	-4.613557	 89.782110	 78.203850	 180.000000	-46.398740	 14.360900	 85.020740	-23.181850	 10.531910	 165.735300	-13.920360	-11.617330	-16.902230	 5.716295	 19.173350	-3.684826	 5.027458	 0.246833	-9.377971	-2.350882	 35.473990	 5.254307
-0.714464	-0.028027	 1.255941	 169.197400	-8.678642	-0.730150	 10.218460	 2.334757	 176.910000	-1.697859	-30.190610	-1.591051	-56.768000	 76.189000	 48.055430	-2.385833	 28.452760	 0.000004	-36.109400	-6.101514	-165.186000	 10.401550	-31.455840	 5.589571	 20.473030	 78.026210	-22.642250	 2.384659	 28.388700	-0.000001	 57.755710	 3.520144	-14.240600	 8.303588	 4.690036	-0.999801	-1.646256	 6.252032	 1.404973	-91.776210	 78.527380	-180.000000	-21.108420	 49.064080	-23.244790	-57.652070	 45.461800	-46.640740	-30.118400	-51.622430	-15.123160	-4.130354	 21.526190	 0.991307	-5.167926	 0.731697	 3.519349	-1.378229	 35.397820	-2.634230	 14.934160	 5.177809	-3.997398	 5.345726	-14.709760	-5.019628	 89.782070	 78.203890	-180.000000	-46.715600	 12.657120	 86.613960	-22.313870	 10.796560	 164.690200	-16.978350	-10.463540	-17.587720	 5.716295	 19.173350	-3.684826	 5.027458	 0.246833	-9.377971	-2.350882	 35.473990	 5.254307
-0.713889	-0.028177	 1.255447	 168.982800	-8.442551	-0.561318	 9.831482	 2.073829	 176.956000	-1.571193	-30.293890	-1.531934	-57.343480	 76.321030	 48.549980	-2.385833	 28.452760	 0.000004	-36.451050	-6.415504	-165.383800	 10.562910	-31.548250	 5.690814	 20.127450	 78.040750	-22.328560	 2.384659	 28.388700	-0.000001	 58.358460	 2.669511	-14.350490	 8.788457	 5.294725	-1.419036	-1.666174	 5.663046	 1.601788	-91.776150	 78.527420	 180.000000	-23.494060	 47.913280	-23.302880	-57.166770	 45.902460	-47.365220	-30.539910	-51.991960	-15.350660	-4.130354	 21.526190	 0.991307	-5.167926	 0.731697	 3.519349	-1.378229	 35.397820	-2.634230	 15.042480	 5.240167	-4.337628	 5.277141	-15.464620	-5.157382	 89.782090	 78.203900	-180.000000	-46.822090	 10.959790	 88.055000	-21.419090	 11.064550	 163.577900	-19.930990	-9.314456	-18.087880	 5.716295	 19.173350	-3.684826	 5.027458	 0.246833	-9.377971	-2.350882	 35.473990	 5.254307
-0.713148	-0.028418	 1.254985	 168.821000	-8.115721	-0.536926	 9.514234	 1.705046	 177.232000	-1.470229	-30.334200	-1.482681	-57.053630	 76.538290	 48.168240	-2.385833	 28.452760	 0.000004	-36.666720	-6.973755	-165.490800	 10.704620	-31.703880	 5.792224	 19.975920	 78.006060	-22.182900	 2.384659	 28.388700	-0.000001	 58.846520	 1.712319	-14.329350	 9.187235	 6.260463	-1.244536	-1.649060	 4.906641	 1.341527	-91.776260	 78.527380	-179.999900	-24.719620	 46.224030	-28.395110	-60.666870	 42.821460	-42.360740	-30.864180	-52.295940	-15.476890	-4.130354	 21.526190	 0.991307	-5.167926	 0.731697	 3.519349	-1.378229	 35.397820	-2.634230	 15.100280	 5.468278	-4.574631	 5.249249	-16.298240	-5.139461	 89.782040	 78.203850	-179.999900	-46.625370	 9.287004	 89.179690	-20.463060	 11.256990	 162.453900	-22.656300	-8.174118	-18.249450	 5.716295	 19.173350	-3.684826	 5.027458	 0.246833	-9.377971	-2.350882	 35.473990	 5.254307
-0.712257	-0.028732	 1.254527	 168.662300	-7.703712	-0.532432	 9.190460	 1.213332	 177.606500	-1.363765	-30.365710	-1.430149	-56.359180	 76.806660	 47.369990	-2.385833	 28.452760	 0.000004	-36.874060	-7.688763	-165.607400	 10.856920	-31.882550	 5.903872	 19.816440	 77.919820	-22.016990	 2.384659	 28.388700	-0.000001	 59.354000	 0.574717	-14.247490	 9.615039	 7.502686	-0.828994	-1.630212	 3.993316	 0.881306	-91.776240	 78.527360	-180.000000	-25.925200	 43.796430	-37.763200	-66.860680	 34.995650	-32.512810	-31.193460	-52.618610	-15.582030	-4.130354	 21.526190	 0.991307	-5.167926	 0.731697	 3.519349	-1.378229	 35.397820	-2.634230	 15.155690	 5.749431	-4.816844	 5.226103	-17.229140	-5.091083	 89.782070	 78.203920	-180.000000	-46.346760	 7.474481	 90.318320	-19.392030	 11.440950	 161.177100	-25.619200	-6.938016	-18.266780	 5.716295	 19.173350	-3.684826	 5.027458	 0.246833	-9.377971	-2.350882	 35.473990	 5.254307
